REM DIRINDEX 1\2,1\3,1\4,1\5
REM DIRNAME "folder01","folder02","folder03","folder04","folder05"
TITLE ""
FILE "1Q_j_2156-2169.mp3" MP3
  TRACK 01 AUDIO
    TITLE "3:cjc172_0168"
    INDEX 01 00:00:00
  TRACK 02 AUDIO
    TITLE "0:"
    INDEX 01 00:01:25
  TRACK 03 AUDIO
    TITLE "4:cjc172_0169"
    INDEX 01 00:01:33
  TRACK 04 AUDIO
    TITLE "0:"
    INDEX 01 00:04:32
  TRACK 05 AUDIO
    TITLE "5:cjc172_0170"
    INDEX 01 00:04:39
  TRACK 06 AUDIO
    TITLE "0:"
    INDEX 01 00:10:52
  TRACK 07 AUDIO
    TITLE "3:cjc172_0171"
    INDEX 01 00:11:24
  TRACK 08 AUDIO
    TITLE "0:"
    INDEX 01 00:12:43
  TRACK 09 AUDIO
    TITLE "4:cjc172_0172"
    INDEX 01 00:12:51
  TRACK 10 AUDIO
    TITLE "0:"
    INDEX 01 00:15:39
  TRACK 11 AUDIO
    TITLE "5:cjc172_0173"
    INDEX 01 00:15:45
  TRACK 12 AUDIO
    TITLE "0:"
    INDEX 01 00:20:13
  TRACK 13 AUDIO
    TITLE "3:cjc172_0174"
    INDEX 01 00:20:58
  TRACK 14 AUDIO
    TITLE "0:"
    INDEX 01 00:22:12
  TRACK 15 AUDIO
    TITLE "4:cjc172_0175"
    INDEX 01 00:22:18
  TRACK 16 AUDIO
    TITLE "0:"
    INDEX 01 00:25:67
  TRACK 17 AUDIO
    TITLE "5:cjc172_0176"
    INDEX 01 00:25:75
  TRACK 18 AUDIO
    TITLE "0:"
    INDEX 01 00:30:15
  TRACK 19 AUDIO
    TITLE "3:cjc172_0177"
    INDEX 01 00:30:62
  TRACK 20 AUDIO
    TITLE "0:"
    INDEX 01 00:32:01
  TRACK 21 AUDIO
    TITLE "4:cjc172_0178"
    INDEX 01 00:32:08
  TRACK 22 AUDIO
    TITLE "0:"
    INDEX 01 00:34:60
  TRACK 23 AUDIO
    TITLE "5:cjc172_0179"
    INDEX 01 00:34:66
  TRACK 24 AUDIO
    TITLE "0:"
    INDEX 01 00:41:25
  TRACK 25 AUDIO
    TITLE "3:cjc172_0180"
    INDEX 01 00:41:70
  TRACK 26 AUDIO
    TITLE "0:"
    INDEX 01 00:43:43
  TRACK 27 AUDIO
    TITLE "4:cjc172_0181"
    INDEX 01 00:43:51
  TRACK 28 AUDIO
    TITLE "0:"
    INDEX 01 00:45:50
  TRACK 29 AUDIO
    TITLE "5:cjc172_0182"
    INDEX 01 00:45:58
  TRACK 30 AUDIO
    TITLE "0:"
    INDEX 01 00:52:64
  TRACK 31 AUDIO
    TITLE "3:cjc172_0183"
    INDEX 01 00:53:34
  TRACK 32 AUDIO
    TITLE "0:"
    INDEX 01 00:54:47
  TRACK 33 AUDIO
    TITLE "4:cjc172_0184"
    INDEX 01 00:54:57
  TRACK 34 AUDIO
    TITLE "0:"
    INDEX 01 00:56:34
  TRACK 35 AUDIO
    TITLE "5:cjc172_0185"
    INDEX 01 00:56:42
  TRACK 36 AUDIO
    TITLE "0:"
    INDEX 01 01:03:11
  TRACK 37 AUDIO
    TITLE "3:cjc172_0186"
    INDEX 01 01:03:58
  TRACK 38 AUDIO
    TITLE "0:"
    INDEX 01 01:05:14
  TRACK 39 AUDIO
    TITLE "4:cjc172_0187"
    INDEX 01 01:05:25
  TRACK 40 AUDIO
    TITLE "0:"
    INDEX 01 01:10:07
  TRACK 41 AUDIO
    TITLE "5:cjc172_0188"
    INDEX 01 01:10:15
  TRACK 42 AUDIO
    TITLE "0:"
    INDEX 01 01:15:24
  TRACK 43 AUDIO
    TITLE "3:cjc172_0189"
    INDEX 01 01:15:71
  TRACK 44 AUDIO
    TITLE "0:"
    INDEX 01 01:17:33
  TRACK 45 AUDIO
    TITLE "4:cjc172_0190"
    INDEX 01 01:17:38
  TRACK 46 AUDIO
    TITLE "0:"
    INDEX 01 01:19:24
  TRACK 47 AUDIO
    TITLE "5:cjc172_0191"
    INDEX 01 01:19:33
  TRACK 48 AUDIO
    TITLE "0:"
    INDEX 01 01:25:10
  TRACK 49 AUDIO
    TITLE "3:cjc172_0192"
    INDEX 01 01:25:58
  TRACK 50 AUDIO
    TITLE "0:"
    INDEX 01 01:27:23
  TRACK 51 AUDIO
    TITLE "4:cjc172_0193"
    INDEX 01 01:27:33
  TRACK 52 AUDIO
    TITLE "0:"
    INDEX 01 01:29:40
  TRACK 53 AUDIO
    TITLE "5:cjc172_0194"
    INDEX 01 01:29:45
  TRACK 54 AUDIO
    TITLE "0:"
    INDEX 01 01:33:75
  TRACK 55 AUDIO
    TITLE "3:cjc172_0195"
    INDEX 01 01:34:45
  TRACK 56 AUDIO
    TITLE "0:"
    INDEX 01 01:36:12
  TRACK 57 AUDIO
    TITLE "4:cjc172_0196"
    INDEX 01 01:36:20
  TRACK 58 AUDIO
    TITLE "0:"
    INDEX 01 01:38:25
  TRACK 59 AUDIO
    TITLE "5:cjc172_0197"
    INDEX 01 01:38:31
  TRACK 60 AUDIO
    TITLE "0:"
    INDEX 01 01:42:52
  TRACK 61 AUDIO
    TITLE "3:cjc172_0198"
    INDEX 01 01:43:26
  TRACK 62 AUDIO
    TITLE "0:"
    INDEX 01 01:45:37
  TRACK 63 AUDIO
    TITLE "4:cjc172_0199"
    INDEX 01 01:45:46
  TRACK 64 AUDIO
    TITLE "0:"
    INDEX 01 01:48:02
  TRACK 65 AUDIO
    TITLE "5:cjc172_0200"
    INDEX 01 01:48:12
  TRACK 66 AUDIO
    TITLE "0:"
    INDEX 01 01:52:35
  TRACK 67 AUDIO
    TITLE "3:cjc172_0201"
    INDEX 01 01:53:09
  TRACK 68 AUDIO
    TITLE "0:"
    INDEX 01 01:54:26
  TRACK 69 AUDIO
    TITLE "4:cjc172_0202"
    INDEX 01 01:54:36
  TRACK 70 AUDIO
    TITLE "0:"
    INDEX 01 01:56:11
  TRACK 71 AUDIO
    TITLE "5:cjc172_0203"
    INDEX 01 01:56:19
  TRACK 72 AUDIO
    TITLE "0:"
    INDEX 01 02:02:21
  TRACK 73 AUDIO
    TITLE "3:cjc172_0204"
    INDEX 01 02:02:66
  TRACK 74 AUDIO
    TITLE "0:"
    INDEX 01 02:04:40
  TRACK 75 AUDIO
    TITLE "4:cjc172_0205"
    INDEX 01 02:04:50
  TRACK 76 AUDIO
    TITLE "0:"
    INDEX 01 02:06:37
  TRACK 77 AUDIO
    TITLE "5:cjc172_0206"
    INDEX 01 02:06:43
  TRACK 78 AUDIO
    TITLE "0:"
    INDEX 01 02:10:17
  TRACK 79 AUDIO
    TITLE "3:cjc172_0207"
    INDEX 01 02:10:64
  TRACK 80 AUDIO
    TITLE "0:"
    INDEX 01 02:12:18
  TRACK 81 AUDIO
    TITLE "4:cjc172_0208"
    INDEX 01 02:12:26
  TRACK 82 AUDIO
    TITLE "0:"
    INDEX 01 02:14:64
  TRACK 83 AUDIO
    TITLE "5:cjc172_0209"
    INDEX 01 02:14:72
  TRACK 84 AUDIO
    TITLE "0:"
    INDEX 01 02:20:61
